<svg width="24" height="29" viewBox="0 0 24 29" fill="none" xmlns="http://www.w3.org/2000/svg">
<path d="M22.9533 8.71301C21.5913 3.16806 16.3637 0.671631 11.7717 0.671631H11.7587C7.17972 0.671631 1.93916 3.15606 0.577127 8.70101C-0.940563 14.8941 4.68079 22.956 8.3907 26.2565C9.70567 27.4342 9.94166 28.0927 11.7717 28.0929C13.5359 28.0929 13.7777 27.4808 15.1397 26.2565C18.8497 22.956 24.471 14.9061 22.9533 8.71301ZM11.7717 14.726C11.2351 14.726 10.7038 14.6283 10.208 14.4383C9.71228 14.2483 9.26184 13.9698 8.88241 13.6187C8.50298 13.2677 8.202 12.8509 7.99666 12.3922C7.79131 11.9335 7.68562 11.4419 7.68562 10.9454C7.68562 10.4489 7.79131 9.95729 7.99666 9.4986C8.202 9.03991 8.50298 8.62314 8.88241 8.27207C9.26184 7.92101 9.71228 7.64253 10.208 7.45253C10.7038 7.26254 11.2351 7.16475 11.7717 7.16475C12.8554 7.16475 13.8947 7.56306 14.661 8.27207C15.4273 8.98108 15.8578 9.94271 15.8578 10.9454C15.8578 11.9481 15.4273 12.9097 14.661 13.6187C13.8947 14.3277 12.8554 14.726 11.7717 14.726Z" fill="#FF3838"/>
</svg>
